# ProBuilder 5.0.6
# https://unity3d.com/unity/features/worldbuilding/probuilder
# 2023-03-30 4:56:25 PM

mtllib ./neon_white_pillar_1x1.mtl
o neon_white_pillar_1x1

g neon_white_pillar_1x1
v -0.025 0 1
v -0.975 0 1
v -0.025 1 1
v -0.975 1 1
v -1 0 0.975
v -1 0 0.025
v -1 1 0.975
v -1 1 0.025
v -0.975 0 0
v -0.025 0 0
v -0.975 1 0
v -0.025 1 0
v 0 0 0.025
v 0 0 0.975
v 0 1 0.025
v 0 1 0.975

vt -0.025 0
vt -0.975 0
vt -0.025 1
vt -0.975 1
vt 0.975 0
vt 0.025 0
vt 0.975 1
vt 0.025 1
vt 0.01767767 0
vt 0.01767767 1
vt -0.01767767 0
vt -0.01767767 1
vt 0.7247841 0
vt 0.7247841 1
vt 0.6894288 0
vt 0.6894288 1
vt -0.7247841 1
vt -0.7247841 0
vt -0.6894288 1
vt -0.6894288 0
vt -1 0.025
vt -1 0.975
vt 0 0.975
vt 0 0.025
vt 1 0.975
vt 1 0.025

vn 0 0 1
vn -1 0 0
vn 0 0 -1
vn 1 0 0
vn 0.7071068 0 -0.7071068
vn -0.7071071 0 -0.7071065
vn 0.7071065 0 0.7071071
vn -0.7071068 0 0.7071068
vn 0 -1 0
vn 0 1 0

usemtl White
f 13/24/9 14/23/9 1/3/9
f 10/1/9 13/24/9 1/3/9
f 10/1/9 1/3/9 6/21/9
f 9/2/9 10/1/9 6/21/9
f 6/21/9 1/3/9 5/22/9
f 5/22/9 1/3/9 2/4/9
f 4/7/10 3/8/10 7/25/10
f 7/25/10 3/8/10 8/26/10
f 8/26/10 12/6/10 11/5/10
f 8/26/10 3/8/10 12/6/10
f 3/8/10 15/24/10 12/6/10
f 3/8/10 16/23/10 15/24/10
f 4/4/1 2/2/1 1/1/1
f 1/1/1 3/3/1 4/4/1
f 8/8/2 6/6/2 5/5/2
f 5/5/2 7/7/2 8/8/2
f 12/8/3 10/6/3 9/5/3
f 9/5/3 11/7/3 12/8/3
f 16/4/4 14/2/4 13/1/4
f 13/1/4 15/3/4 16/4/4

usemtl EmissiveBlue
f 15/12/5 13/11/5 10/9/5 12/10/5
f 11/16/6 9/15/6 6/13/6 8/14/6
f 14/20/7 16/19/7 3/17/7 1/18/7
f 7/12/8 5/11/8 2/9/8 4/10/8

