# ProBuilder 5.0.6
# https://unity3d.com/unity/features/worldbuilding/probuilder
# 2023-04-19 8:07:21 PM

mtllib ./stairs.mtl
o stairs

g Stairs
v 6 0 1
v 8 0 1
v 6 0.25 1
v 8 0.25 1
v 6 0.25 1.5
v 8 0.25 1.5
v 6 0.5 1.5
v 8 0.5 1.5
v 6 0.5 2
v 8 0.5 2
v 6 0.75 2
v 8 0.75 2
v 6 0.75 2.5
v 8 0.75 2.5
v 6 1 2.5
v 8 1 2.5
v 6 1 3
v 8 1 3
v 6 1.25 3
v 8 1.25 3
v 6 1.25 3.5
v 8 1.25 3.5
v 6 1.5 3.5
v 8 1.5 3.5
v 6 1.5 4
v 8 1.5 4
v 6 1.75 4
v 8 1.75 4
v 6 1.75 4.5
v 8 1.75 4.5
v 6 2 4.5
v 8 2 4.5
v 6 2 5
v 8 2 5
v 6 2.25 5
v 8 2.25 5
v 6 2.25 5.5
v 8 2.25 5.5
v 6 2.5 5.5
v 8 2.5 5.5
v 6 2.5 6
v 8 2.5 6
v 6 2.75 6
v 8 2.75 6
v 6 2.75 6.5
v 8 2.75 6.5
v 6 3 6.5
v 8 3 6.5
v 6 3 7
v 8 3 7
v 6 3.25 7
v 8 3.25 7
v 6 3.25 7.5
v 8 3.25 7.5
v 6 3.5 7.5
v 8 3.5 7.5
v 6 3.5 8
v 8 3.5 8
v 6 3.75 8
v 8 3.75 8
v 6 3.75 8.5
v 8 3.75 8.5
v 6 4 8.5
v 8 4 8.5
v 6 4 9
v 8 4 9
v 8 0 1.5
v 8 0 2
v 8 0 2.5
v 8 0 3
v 8 0 3.5
v 8 0 4
v 8 0 4.5
v 8 0 5
v 8 0 5.5
v 8 0 6
v 8 0 6.5
v 8 0 7
v 8 0 7.5
v 8 0 8
v 8 0 8.5
v 8 0 9
v 6 0 1.5
v 6 0 2
v 6 0 2.5
v 6 0 3
v 6 0 3.5
v 6 0 4
v 6 0 4.5
v 6 0 5
v 6 0 5.5
v 6 0 6
v 6 0 6.5
v 6 0 7
v 6 0 7.5
v 6 0 8
v 6 0 8.5
v 6 0 9

vt 1 -2
vt -1 -2
vt 1 -1.75
vt -1 -1.75
vt 1 -4
vt -1 -4
vt 1 -3.5
vt -1 -3.5
vt 1 -1.5
vt -1 -1.5
vt 1 -3
vt -1 -3
vt 1 -1.25
vt -1 -1.25
vt 1 -2.5
vt -1 -2.5
vt 1 -1
vt -1 -1
vt 1 -0.75
vt -1 -0.75
vt 1 -0.5
vt -1 -0.5
vt 1 -0.25
vt -1 -0.25
vt 1 0
vt -1 0
vt 1 0.25
vt -1 0.25
vt 1 0.5
vt -1 0.5
vt 1 1
vt -1 1
vt 1 0.75
vt -1 0.75
vt 1 1.5
vt -1 1.5
vt 1 2
vt -1 2
vt 1 1.25
vt -1 1.25
vt 1 2.5
vt -1 2.5
vt 1 3
vt -1 3
vt 1 1.75
vt -1 1.75
vt 1 3.5
vt -1 3.5
vt 1 4
vt -1 4
vt 4 -2
vt 3.5 -2
vt 4 -1.75
vt 3.5 -1.75
vt 3 -2
vt 3 -1.5
vt 3.5 -1.5
vt 2.5 -2
vt 2.5 -1.25
vt 3 -1.25
vt 2 -2
vt 2 -1
vt 2.5 -1
vt 1.5 -2
vt 1.5 -0.75
vt 2 -0.75
vt 1.5 -0.5
vt 0.5 -2
vt 0.5 -0.25
vt 0 -2
vt 0 0
vt 0.5 0
vt -0.5 -2
vt -0.5 0.25
vt 0 0.25
vt -0.5 0.5
vt -1.5 -2
vt -1.5 0.75
vt -2 -2
vt -2 1
vt -1.5 1
vt -2.5 -2
vt -2.5 1.25
vt -2 1.25
vt -3 -2
vt -3 1.5
vt -2.5 1.5
vt -3.5 -2
vt -3.5 1.75
vt -3 1.75
vt -4 -2
vt -4 2
vt -3.5 2
vt -4 -1.75
vt -3.5 -1.75
vt -3 -1.5
vt -3.5 -1.5
vt -2.5 -1.25
vt -3 -1.25
vt -2 -1
vt -2.5 -1
vt -1.5 -0.75
vt -2 -0.75
vt -1.5 -0.5
vt -0.5 -0.25
vt -0.5 0
vt 0.5 0.25
vt 0.5 0.5
vt 1.5 0.75
vt 2 1
vt 1.5 1
vt 2.5 1.25
vt 2 1.25
vt 3 1.5
vt 2.5 1.5
vt 3.5 1.75
vt 3 1.75
vt 4 2
vt 3.5 2

vn 0 2.220446E-17 -1
vn 0 1 2.220446E-17
vn 1 0 0
vn -1 0 0
vn 0 -2.220446E-17 1

usemtl White
f 6/54/3 8/57/3 10/56/3
f 10/56/3 12/60/3 14/59/3
f 14/59/3 16/63/3 18/62/3
f 18/62/3 20/66/3 22/65/3
f 22/65/3 24/67/3 26/21/3
f 26/21/3 28/23/3 30/69/3
f 30/69/3 32/72/3 34/71/3
f 34/71/3 36/75/3 38/74/3
f 38/74/3 40/76/3 42/30/3
f 42/30/3 44/34/3 46/78/3
f 46/78/3 48/81/3 50/80/3
f 50/80/3 52/84/3 54/83/3
f 54/83/3 56/87/3 58/86/3
f 58/86/3 60/90/3 62/89/3
f 62/89/3 64/93/3 66/92/3
f 9/96/4 7/97/4 5/95/4
f 13/98/4 11/99/4 9/96/4
f 17/100/4 15/101/4 13/98/4
f 21/102/4 19/103/4 17/100/4
f 25/22/4 23/104/4 21/102/4
f 29/105/4 27/24/4 25/22/4
f 33/71/4 31/106/4 29/105/4
f 37/107/4 35/75/4 33/71/4
f 41/29/4 39/108/4 37/107/4
f 45/109/4 43/33/4 41/29/4
f 49/110/4 47/111/4 45/109/4
f 53/112/4 51/113/4 49/110/4
f 57/114/4 55/115/4 53/112/4
f 61/116/4 59/117/4 57/114/4
f 65/118/4 63/119/4 61/116/4
f 4/4/1 2/2/1 1/1/1
f 1/1/1 3/3/1 4/4/1
f 6/8/2 4/6/2 3/5/2
f 3/5/2 5/7/2 6/8/2
f 8/10/1 6/4/1 5/3/1
f 5/3/1 7/9/1 8/10/1
f 10/12/2 8/8/2 7/7/2
f 7/7/2 9/11/2 10/12/2
f 12/14/1 10/10/1 9/9/1
f 9/9/1 11/13/1 12/14/1
f 14/16/2 12/12/2 11/11/2
f 11/11/2 13/15/2 14/16/2
f 16/18/1 14/14/1 13/13/1
f 13/13/1 15/17/1 16/18/1
f 18/2/2 16/16/2 15/15/2
f 15/15/2 17/1/2 18/2/2
f 20/20/1 18/18/1 17/17/1
f 17/17/1 19/19/1 20/20/1
f 22/10/2 20/2/2 19/1/2
f 19/1/2 21/9/2 22/10/2
f 24/22/1 22/20/1 21/19/1
f 21/19/1 23/21/1 24/22/1
f 26/18/2 24/10/2 23/9/2
f 23/9/2 25/17/2 26/18/2
f 28/24/1 26/22/1 25/21/1
f 25/21/1 27/23/1 28/24/1
f 30/22/2 28/18/2 27/17/2
f 27/17/2 29/21/2 30/22/2
f 32/26/1 30/24/1 29/23/1
f 29/23/1 31/25/1 32/26/1
f 34/26/2 32/22/2 31/21/2
f 31/21/2 33/25/2 34/26/2
f 36/28/1 34/26/1 33/25/1
f 33/25/1 35/27/1 36/28/1
f 38/30/2 36/26/2 35/25/2
f 35/25/2 37/29/2 38/30/2
f 40/30/1 38/28/1 37/27/1
f 37/27/1 39/29/1 40/30/1
f 42/32/2 40/30/2 39/29/2
f 39/29/2 41/31/2 42/32/2
f 44/34/1 42/30/1 41/29/1
f 41/29/1 43/33/1 44/34/1
f 46/36/2 44/32/2 43/31/2
f 43/31/2 45/35/2 46/36/2
f 48/32/1 46/34/1 45/33/1
f 45/33/1 47/31/1 48/32/1
f 50/38/2 48/36/2 47/35/2
f 47/35/2 49/37/2 50/38/2
f 52/40/1 50/32/1 49/31/1
f 49/31/1 51/39/1 52/40/1
f 54/42/2 52/38/2 51/37/2
f 51/37/2 53/41/2 54/42/2
f 56/36/1 54/40/1 53/39/1
f 53/39/1 55/35/1 56/36/1
f 58/44/2 56/42/2 55/41/2
f 55/41/2 57/43/2 58/44/2
f 60/46/1 58/36/1 57/35/1
f 57/35/1 59/45/1 60/46/1
f 62/48/2 60/44/2 59/43/2
f 59/43/2 61/47/2 62/48/2
f 64/38/1 62/46/1 61/45/1
f 61/45/1 63/37/1 64/38/1
f 66/50/2 64/48/2 63/47/2
f 63/47/2 65/49/2 66/50/2
f 6/54/3 67/52/3 2/51/3
f 2/51/3 4/53/3 6/54/3
f 10/56/3 68/55/3 67/52/3
f 67/52/3 6/54/3 10/56/3
f 14/59/3 69/58/3 68/55/3
f 68/55/3 10/56/3 14/59/3
f 18/62/3 70/61/3 69/58/3
f 69/58/3 14/59/3 18/62/3
f 22/65/3 71/64/3 70/61/3
f 70/61/3 18/62/3 22/65/3
f 26/21/3 72/1/3 71/64/3
f 71/64/3 22/65/3 26/21/3
f 30/69/3 73/68/3 72/1/3
f 72/1/3 26/21/3 30/69/3
f 34/71/3 74/70/3 73/68/3
f 73/68/3 30/69/3 34/71/3
f 38/74/3 75/73/3 74/70/3
f 74/70/3 34/71/3 38/74/3
f 42/30/3 76/2/3 75/73/3
f 75/73/3 38/74/3 42/30/3
f 46/78/3 77/77/3 76/2/3
f 76/2/3 42/30/3 46/78/3
f 50/80/3 78/79/3 77/77/3
f 77/77/3 46/78/3 50/80/3
f 54/83/3 79/82/3 78/79/3
f 78/79/3 50/80/3 54/83/3
f 58/86/3 80/85/3 79/82/3
f 79/82/3 54/83/3 58/86/3
f 62/89/3 81/88/3 80/85/3
f 80/85/3 58/86/3 62/89/3
f 66/92/3 82/91/3 81/88/3
f 81/88/3 62/89/3 66/92/3
f 3/94/4 1/91/4 83/88/4
f 83/88/4 5/95/4 3/94/4
f 5/95/4 83/88/4 84/85/4
f 84/85/4 9/96/4 5/95/4
f 9/96/4 84/85/4 85/82/4
f 85/82/4 13/98/4 9/96/4
f 13/98/4 85/82/4 86/79/4
f 86/79/4 17/100/4 13/98/4
f 17/100/4 86/79/4 87/77/4
f 87/77/4 21/102/4 17/100/4
f 21/102/4 87/77/4 88/2/4
f 88/2/4 25/22/4 21/102/4
f 25/22/4 88/2/4 89/73/4
f 89/73/4 29/105/4 25/22/4
f 29/105/4 89/73/4 90/70/4
f 90/70/4 33/71/4 29/105/4
f 33/71/4 90/70/4 91/68/4
f 91/68/4 37/107/4 33/71/4
f 37/107/4 91/68/4 92/1/4
f 92/1/4 41/29/4 37/107/4
f 41/29/4 92/1/4 93/64/4
f 93/64/4 45/109/4 41/29/4
f 45/109/4 93/64/4 94/61/4
f 94/61/4 49/110/4 45/109/4
f 49/110/4 94/61/4 95/58/4
f 95/58/4 53/112/4 49/110/4
f 53/112/4 95/58/4 96/55/4
f 96/55/4 57/114/4 53/112/4
f 57/114/4 96/55/4 97/52/4
f 97/52/4 61/116/4 57/114/4
f 61/116/4 97/52/4 98/51/4
f 98/51/4 65/118/4 61/116/4
f 65/38/5 98/2/5 82/1/5
f 82/1/5 66/37/5 65/38/5

g stairs left
v 8.25 -0.25 9
v 8 -0.25 9
v 8.25 4.25 9
v 8 4.25 9
v 8 -0.25 8.5
v 8 0 1
v 8 4.25 8.5
v 8 0.5 1
v 8.25 0 1
v 8.25 0.5 1
v 8.25 -0.25 8.5
v 8.25 4.25 8.5

vt 0.25 -0.25
vt 0 -0.25
vt 0.25 4.25
vt 0 4.25
vt 7.5 -0.25
vt 0 0
vt 7.5 4.25
vt 0 0.5
vt -0.25 0
vt -0.25 0.5
vt -7.5 -0.25
vt -7.5 4.25
vt -0.25 8.608862
vt 0 8.608862
vt -0.25 0.2236068
vt 0 0.2236068
vt 0.25 0
vt 0.25 7.504166
vt 0 7.504166
vt 0.25 7.5
vt 0 7.5
vt 0.25 8
vt 0 8
vt -8 4.25
vt -8 -0.25
vt 8 -0.25
vt 8 4.25
vt -0.25 7.5
vt -0.25 8

vn 0 -2.220446E-17 1
vn -1 0 0
vn 0 2.220446E-17 -1
vn 1 0 0
vn 0 0.8944272 -0.4472136
vn 0 -0.9994449 -0.03331483
vn 0 -1 -2.220446E-17
vn 0 1 2.220446E-17

usemtl Dark_Grey
f 101/122/6 102/123/6 100/121/6 99/120/6
f 105/126/7 106/127/7 104/125/7 103/124/7
f 106/127/8 108/129/8 107/128/8 104/125/8
f 108/127/9 110/131/9 109/130/9 107/125/9
f 108/134/10 106/135/10 105/133/10 110/132/10
f 109/137/11 103/138/11 104/125/11 107/136/11
f 99/141/12 100/142/12 103/140/12 109/139/12
f 101/143/9 99/144/9 109/130/9 110/131/9
f 100/145/7 102/146/7 105/126/7 103/124/7
f 102/142/13 101/148/13 110/147/13 105/140/13

g stairs right
v 6 -0.25 9
v 5.75 -0.25 9
v 6 4.25 9
v 5.75 4.25 9
v 5.75 -0.25 8.5
v 5.75 0 1
v 5.75 4.25 8.5
v 5.75 0.5 1
v 6 0 1
v 6 0.5 1
v 6 -0.25 8.5
v 6 4.25 8.5

vt 0.25 -0.25
vt 0 -0.25
vt 0.25 4.25
vt 0 4.25
vt 7.5 -0.25
vt 0 0
vt 7.5 4.25
vt 0 0.5
vt -0.25 0
vt -0.25 0.5
vt -7.5 -0.25
vt -7.5 4.25
vt -0.25 8.608862
vt 0 8.608862
vt -0.25 0.2236068
vt 0 0.2236068
vt 0.25 0
vt 0.25 7.504166
vt 0 7.504166
vt 0.25 7.5
vt 0 7.5
vt 0.25 8
vt 0 8
vt -8 4.25
vt -8 -0.25
vt 8 -0.25
vt 8 4.25
vt -0.25 7.5
vt -0.25 8

vn 0 -2.220446E-17 1
vn -1 0 0
vn 0 2.220446E-17 -1
vn 1 0 0
vn 0 0.8944272 -0.4472136
vn 0 -0.9994449 -0.03331483
vn 0 -1 -2.220446E-17
vn 0 1 2.220446E-17

usemtl Dark_Grey
f 113/151/14 114/152/14 112/150/14 111/149/14
f 117/155/15 118/156/15 116/154/15 115/153/15
f 118/156/16 120/158/16 119/157/16 116/154/16
f 120/156/17 122/160/17 121/159/17 119/154/17
f 120/163/18 118/164/18 117/162/18 122/161/18
f 121/166/19 115/167/19 116/154/19 119/165/19
f 111/170/20 112/171/20 115/169/20 121/168/20
f 113/172/17 111/173/17 121/159/17 122/160/17
f 112/174/15 114/175/15 117/155/15 115/153/15
f 114/171/21 113/177/21 122/176/21 117/169/21

