# ProBuilder 5.0.6
# https://unity3d.com/unity/features/worldbuilding/probuilder
# 2023-03-30 4:56:34 PM

mtllib ./white_ramp_1x1.mtl
o white_ramp_1x1

g white_ramp_1x1
v 0 0 1
v -1 0 1
v 0 1 1
v -1 1 1
v -1 0 0
v 0 0 0

vt 0 0
vt -1 0
vt 0 1
vt -1 1
vt 1 0
vt 1 1
vt 1 1.414214
vt 0 1.414214

vn 0 0 1
vn -1 0 0
vn 0 0.7071068 -0.7071068
vn 1 0 0
vn 0 -1 0

usemtl White
f 4/6/2 5/1/2 2/5/2
f 3/4/4 1/2/4 6/1/4
f 4/4/1 2/2/1 1/1/1
f 1/1/1 3/3/1 4/4/1
f 3/8/3 6/1/3 5/5/3
f 5/5/3 4/7/3 3/8/3
f 2/4/5 5/2/5 6/1/5
f 6/1/5 1/3/5 2/4/5

